<?xml version="1.0" standalone="no"?>
<!DOCTYPE svg PUBLIC "-//W3C//DTD SVG 20010904//EN"
 "http://www.w3.org/TR/2001/REC-SVG-20010904/DTD/svg10.dtd">
<svg version="1.0" xmlns="http://www.w3.org/2000/svg"
 width="904.000000pt" height="567.000000pt" viewBox="0 0 904.000000 567.000000"
 preserveAspectRatio="xMidYMid meet">

<g transform="translate(0.000000,567.000000) scale(0.100000,-0.100000)"
fill="#000000" stroke="none">
<path d="M4203 4010 c-377 -68 -586 -481 -414 -818 31 -60 94 -141 136 -174
36 -28 48 -55 56 -118 l6 -55 2 60 c1 67 -2 73 -74 150 -57 61 -121 189 -136
270 -25 135 3 285 73 390 184 277 559 327 801 105 62 -57 81 -96 97 -205 8
-51 24 -95 61 -163 27 -51 49 -99 49 -106 0 -8 -25 -37 -55 -64 l-55 -51 0
-100 c0 -91 -2 -102 -24 -128 -24 -28 -26 -28 -133 -27 -86 1 -122 6 -180 26
-88 30 -87 20 2 -16 37 -15 103 -30 156 -36 172 -20 197 -1 212 152 l9 103 59
55 c44 42 59 63 59 83 0 15 -22 71 -49 125 -36 73 -51 116 -60 177 -14 99 -37
147 -98 207 -127 125 -329 188 -500 158z"/>
<path d="M4250 3836 c0 -2 11 -6 25 -8 14 -3 25 -1 25 3 0 5 -11 9 -25 9 -14
0 -25 -2 -25 -4z"/>
<path d="M4176 3794 c-5 -14 -4 -15 9 -4 17 14 19 20 6 20 -5 0 -12 -7 -15
-16z"/>
<path d="M4220 3800 c-8 -5 -10 -10 -5 -10 6 0 17 5 25 10 8 5 11 10 5 10 -5
0 -17 -5 -25 -10z"/>
<path d="M4300 3806 c0 -2 7 -7 16 -10 8 -3 12 -2 9 4 -6 10 -25 14 -25 6z"/>
<path d="M4340 3806 c0 -2 7 -7 16 -10 8 -3 12 -2 9 4 -6 10 -25 14 -25 6z"/>
<path d="M4268 3773 c7 -3 16 -2 19 1 4 3 -2 6 -13 5 -11 0 -14 -3 -6 -6z"/>
<path d="M4237 3763 c-9 -9 -9 -51 1 -56 4 -3 7 10 7 29 0 19 0 34 -1 34 0 0
-4 -3 -7 -7z"/>
<path d="M4352 3735 c0 -16 2 -22 5 -12 2 9 2 23 0 30 -3 6 -5 -1 -5 -18z"/>
<path d="M4311 3743 c-1 -6 -4 -20 -7 -30 -5 -17 -5 -17 6 0 6 10 9 23 6 30
-3 9 -5 9 -5 0z"/>
<path d="M4182 3718 c-18 -18 -14 -29 20 -68 17 -19 27 -28 23 -20 -4 8 -17
25 -29 38 -17 19 -18 26 -8 42 14 23 12 26 -6 8z"/>
<path d="M4268 3693 c7 -3 16 -2 19 1 4 3 -2 6 -13 5 -11 0 -14 -3 -6 -6z"/>
<path d="M4120 3671 c0 -6 4 -13 10 -16 6 -3 7 1 4 9 -7 18 -14 21 -14 7z"/>
<path d="M4350 3670 c-9 -6 -10 -10 -3 -10 6 0 15 5 18 10 8 12 4 12 -15 0z"/>
<path d="M4330 3615 c0 -20 -31 -35 -51 -24 -25 13 -55 -33 -34 -51 15 -13 20
-42 9 -53 -11 -11 -44 39 -44 66 0 14 7 27 15 31 8 3 15 10 15 16 0 5 -9 2
-20 -7 -24 -21 -26 -65 -5 -83 9 -7 14 -18 12 -24 -7 -18 34 -68 50 -62 21 9
51 -11 56 -36 l4 -23 2 22 c1 27 -38 56 -63 47 -20 -8 -34 22 -17 39 6 6 11
20 11 32 0 12 -5 26 -11 32 -18 18 -2 46 22 40 14 -4 29 2 46 19 28 28 48 31
63 7 11 -17 11 -17 6 0 -3 10 -6 21 -6 23 0 2 -13 4 -30 4 -20 0 -30 -5 -30
-15z"/>
<path d="M3936 3611 c-3 -4 4 -17 17 -27 22 -19 22 -19 4 2 -9 11 -14 24 -10
27 3 4 4 7 0 7 -3 0 -8 -4 -11 -9z"/>
<path d="M4046 3594 c-24 -24 -19 -30 7 -8 12 10 24 20 26 21 2 2 -1 3 -7 3
-6 0 -18 -7 -26 -16z"/>
<path d="M4100 3603 c8 -3 22 -11 30 -17 13 -10 13 -9 1 7 -7 9 -21 17 -30 16
-13 0 -14 -1 -1 -6z"/>
<path d="M4460 3597 c0 -5 4 -17 10 -27 7 -13 6 -21 -5 -30 -8 -7 -15 -16 -15
-21 0 -5 9 0 20 11 19 19 19 23 6 48 -9 15 -15 23 -16 19z"/>
<path d="M4418 3583 c6 -2 18 -2 25 0 6 3 1 5 -13 5 -14 0 -19 -2 -12 -5z"/>
<path d="M4142 3550 c0 -14 2 -19 5 -12 2 6 2 18 0 25 -3 6 -5 1 -5 -13z"/>
<path d="M4326 3544 c-27 -27 -15 -85 19 -84 5 0 2 5 -7 11 -21 12 -24 49 -6
67 18 18 55 15 67 -5 6 -10 11 -13 11 -7 1 33 -57 45 -84 18z"/>
<path d="M4030 3521 c0 -6 4 -13 10 -16 6 -3 7 1 4 9 -7 18 -14 21 -14 7z"/>
<path d="M3941 3507 c-8 -10 -7 -19 5 -33 14 -18 15 -18 4 3 -8 18 -7 24 7 32
10 6 13 11 7 11 -6 0 -17 -6 -23 -13z"/>
<path d="M4119 3503 c-13 -16 -12 -17 4 -4 16 13 21 21 13 21 -2 0 -10 -8 -17
-17z"/>
<path d="M4465 3482 c20 -24 20 -24 -4 -43 -14 -11 -18 -19 -10 -19 8 0 20 10
28 21 11 19 10 24 -10 43 l-23 21 19 -23z"/>
<path d="M4386 3475 c-11 -8 -15 -15 -9 -15 6 0 16 7 23 15 16 19 11 19 -14 0z"/>
<path d="M4146 3451 c-4 -5 3 -7 14 -4 23 6 26 13 6 13 -8 0 -17 -4 -20 -9z"/>
<path d="M4200 3450 c-9 -6 -10 -10 -3 -10 6 0 15 5 18 10 8 12 4 12 -15 0z"/>
<path d="M4406 3425 c-11 -8 -17 -17 -14 -20 2 -3 13 4 23 15 21 23 18 25 -9
5z"/>
<path d="M4054 3400 c1 -10 13 -15 36 -16 34 -2 34 -1 3 3 -17 2 -34 10 -36
16 -2 7 -3 5 -3 -3z"/>
<path d="M3394 2350 c-39 -12 -64 -40 -73 -82 -24 -110 73 -193 169 -143 27
14 30 14 30 0 0 -8 7 -15 15 -15 12 0 15 14 15 65 l0 65 -55 0 c-48 0 -55 -2
-55 -20 0 -16 7 -20 30 -20 34 0 38 -10 12 -33 -22 -20 -42 -21 -76 -5 -41 18
-53 93 -20 129 21 23 86 26 104 4 9 -11 17 -12 32 -4 20 11 20 11 -3 34 -28
27 -81 38 -125 25z"/>
<path d="M4365 2341 c-23 -10 -46 -29 -53 -45 -17 -37 -15 -107 4 -134 45 -64
153 -68 204 -7 12 15 12 19 -4 31 -17 12 -23 10 -49 -12 -52 -44 -117 -11
-117 58 0 70 73 105 121 57 20 -20 59 -19 59 2 0 18 -50 56 -81 63 -41 8 -38
8 -84 -13z"/>
<path d="M4686 2350 c-64 -20 -98 -88 -77 -153 45 -134 241 -105 241 35 0 45
-19 78 -59 105 -36 24 -58 27 -105 13z m94 -62 c36 -39 22 -110 -25 -128 -77
-29 -133 67 -77 133 22 25 76 22 102 -5z"/>
<path d="M5580 2343 c-65 -34 -48 -101 32 -125 44 -13 63 -31 54 -53 -8 -22
-63 -19 -75 4 -7 13 -18 17 -36 14 -33 -7 -32 -16 6 -47 58 -49 159 -22 159
43 0 35 -24 57 -83 77 -48 16 -57 30 -35 52 17 17 35 15 56 -6 11 -11 26 -16
41 -12 l24 5 -24 28 c-31 35 -74 43 -119 20z"/>
<path d="M6993 2345 c-86 -37 -95 -170 -14 -218 36 -21 90 -22 119 -1 20 14
22 14 22 0 0 -9 9 -16 20 -16 18 0 20 7 20 65 l0 65 -55 0 c-48 0 -55 -2 -55
-20 0 -16 7 -20 30 -20 35 0 38 -10 10 -35 -14 -13 -28 -16 -55 -11 -61 12
-82 89 -38 139 21 22 88 23 101 1 7 -13 13 -14 31 -4 19 10 20 14 9 27 -15 19
-70 43 -95 43 -10 -1 -32 -7 -50 -15z"/>
<path d="M1460 2230 l0 -120 25 0 25 0 0 120 0 120 -25 0 -25 0 0 -120z"/>
<path d="M1620 2230 l0 -120 25 0 c23 0 24 2 27 82 l3 82 50 -82 c43 -71 54
-82 77 -82 l28 0 0 120 0 120 -25 0 c-23 0 -24 -2 -27 -80 l-3 -80 -49 80
c-43 70 -52 80 -77 80 l-29 0 0 -120z"/>
<path d="M2050 2330 c0 -15 7 -20 25 -20 l25 0 0 -100 0 -100 25 0 25 0 0 100
0 100 30 0 c23 0 30 4 30 20 0 18 -7 20 -80 20 -73 0 -80 -2 -80 -20z"/>
<path d="M2290 2230 l0 -120 25 0 c23 0 25 3 25 50 l0 50 55 0 55 0 0 -50 c0
-43 3 -50 20 -50 19 0 20 7 20 120 0 112 -1 120 -19 120 -17 0 -20 -8 -23 -47
l-3 -48 -50 0 -50 0 -3 48 c-3 42 -5 47 -28 47 l-24 0 0 -120z"/>
<path d="M2600 2230 l0 -120 70 0 c63 0 70 2 70 19 0 16 -8 20 -42 23 -39 3
-43 6 -46 31 -3 26 -1 27 37 27 34 0 41 3 41 19 0 16 -8 20 -37 23 -33 3 -38
7 -41 31 -3 26 -2 27 42 27 39 0 46 3 46 20 0 18 -7 20 -70 20 l-70 0 0 -120z"/>
<path d="M2970 2230 l0 -120 60 0 c53 0 60 2 60 20 0 16 -7 20 -35 20 l-35 0
0 100 0 100 -25 0 -25 0 0 -120z"/>
<path d="M3180 2230 l0 -120 25 0 25 0 0 120 0 120 -25 0 -25 0 0 -120z"/>
<path d="M3650 2230 l0 -120 25 0 c23 0 25 3 25 50 l0 50 50 0 50 0 0 -50 c0
-47 2 -50 25 -50 l25 0 0 120 0 120 -25 0 c-23 0 -25 -3 -25 -50 l0 -50 -50 0
-50 0 0 50 c0 47 -2 50 -25 50 l-25 0 0 -120z"/>
<path d="M3930 2330 c0 -16 7 -20 30 -20 l30 0 0 -100 0 -100 25 0 25 0 0 100
0 100 30 0 c23 0 30 4 30 20 0 18 -7 20 -85 20 -78 0 -85 -2 -85 -20z"/>
<path d="M4940 2251 c0 -96 1 -100 26 -120 37 -29 95 -28 131 3 26 23 28 29
31 120 l4 96 -26 0 c-26 0 -26 -1 -26 -78 0 -83 -16 -122 -49 -122 -33 0 -41
22 -41 112 0 87 0 88 -25 88 -25 0 -25 0 -25 -99z"/>
<path d="M5230 2230 l0 -120 25 0 c24 0 24 2 27 83 l3 82 50 -82 c43 -72 54
-83 77 -83 l28 0 0 120 0 120 -25 0 c-25 0 -25 -1 -25 -82 l0 -83 -51 83 c-45
72 -54 82 -80 82 l-29 0 0 -120z"/>
<path d="M5810 2230 l0 -120 70 0 c63 0 70 2 70 20 0 17 -7 20 -45 20 -43 0
-45 1 -45 30 0 28 2 30 40 30 33 0 40 3 40 20 0 17 -7 20 -40 20 -38 0 -40 2
-40 30 0 29 2 30 45 30 38 0 45 3 45 20 0 18 -7 20 -70 20 l-70 0 0 -120z"/>
<path d="M6050 2230 l0 -120 60 0 c53 0 60 2 60 20 0 16 -7 20 -35 20 l-35 0
0 100 0 100 -25 0 -25 0 0 -120z"/>
<path d="M6250 2230 l0 -120 65 0 c58 0 65 2 65 19 0 16 -8 20 -37 23 l-38 3
-3 98 c-3 96 -3 97 -27 97 l-25 0 0 -120z"/>
<path d="M6460 2230 l0 -120 25 0 25 0 0 120 0 120 -25 0 -25 0 0 -120z"/>
<path d="M6620 2230 l0 -120 25 0 c23 0 24 2 27 82 l3 82 50 -82 c43 -71 54
-82 77 -82 l28 0 0 120 0 120 -25 0 c-23 0 -24 -2 -27 -80 l-3 -80 -49 80
c-43 70 -52 80 -77 80 l-29 0 0 -120z"/>
<path d="M4312 1775 c-37 -16 -52 -42 -52 -88 0 -50 49 -91 98 -83 47 7 62 23
62 62 0 30 -3 34 -25 34 -14 0 -25 -4 -25 -10 0 -5 7 -10 15 -10 18 0 20 -36
4 -46 -21 -12 -70 -6 -90 12 -59 54 19 142 92 104 15 -8 19 -7 19 5 0 8 -1 15
-3 15 -1 0 -16 4 -33 9 -21 6 -40 4 -62 -4z"/>
<path d="M5289 1776 c-48 -23 -32 -86 21 -86 42 0 60 -10 60 -31 0 -29 -45
-43 -81 -25 -32 16 -48 6 -23 -15 28 -23 93 -17 115 10 23 28 23 32 5 56 -8
11 -31 21 -57 24 -47 6 -58 25 -27 45 13 8 26 7 48 -1 16 -6 32 -7 35 -3 13
21 -65 42 -96 26z"/>
<path d="M3240 1695 c0 -85 16 -119 22 -47 l3 37 53 1 52 1 0 -39 c0 -21 5
-38 10 -38 6 0 10 35 10 85 0 50 -4 85 -10 85 -5 0 -10 -16 -10 -35 l0 -35
-55 0 -55 0 0 35 c0 19 -4 35 -10 35 -6 0 -10 -35 -10 -85z"/>
<path d="M3450 1695 l0 -85 65 0 c37 0 65 4 65 10 0 6 -25 10 -55 10 -52 0
-55 1 -55 25 0 22 4 25 35 25 26 0 35 4 35 16 0 13 -7 15 -35 11 -33 -5 -35
-4 -35 24 0 28 1 29 50 29 28 0 50 5 50 10 0 6 -27 10 -60 10 l-60 0 0 -85z"/>
<path d="M3647 1698 c-39 -83 -40 -101 -7 -80 25 15 107 16 112 1 2 -7 9 -10
15 -8 12 4 -60 169 -74 169 -4 -1 -25 -37 -46 -82z m83 -40 c0 -5 -16 -8 -35
-8 -39 0 -42 7 -19 52 l17 32 18 -35 c10 -19 18 -37 19 -41z"/>
<path d="M3820 1695 l0 -85 60 0 c33 0 60 4 60 10 0 6 -22 10 -50 10 l-50 0 0
75 c0 43 -4 75 -10 75 -6 0 -10 -35 -10 -85z"/>
<path d="M3980 1695 c0 -50 4 -85 10 -85 6 0 10 35 10 85 0 50 -4 85 -10 85
-6 0 -10 -35 -10 -85z"/>
<path d="M4054 1764 c3 -9 6 -47 6 -85 0 -39 4 -69 10 -69 6 0 10 25 10 55 0
30 3 55 8 55 4 -1 27 -25 51 -55 61 -78 71 -74 71 30 0 101 -18 115 -22 18
l-3 -68 -55 67 c-52 62 -90 89 -76 52z"/>
<path d="M4528 1768 c7 -7 12 -42 12 -85 0 -42 4 -73 10 -73 6 0 10 26 10 57
l0 57 34 -33 33 -32 26 30 c14 17 28 31 31 31 3 0 6 -25 6 -55 0 -30 5 -55 10
-55 6 0 10 30 10 69 0 38 3 76 6 85 12 30 -18 16 -56 -26 l-38 -43 -37 43
c-20 23 -44 42 -53 42 -12 0 -13 -3 -4 -12z"/>
<path d="M4770 1695 c0 -50 4 -85 10 -85 6 0 10 35 10 85 0 50 -4 85 -10 85
-6 0 -10 -35 -10 -85z"/>
<path d="M4848 1695 c3 -64 7 -85 17 -85 10 0 15 17 17 56 l3 57 45 -57 c25
-31 50 -56 57 -56 10 0 13 23 13 85 0 101 -18 115 -22 18 l-3 -67 -54 67 c-30
37 -59 67 -65 67 -7 0 -10 -29 -8 -85z"/>
<path d="M5050 1770 c0 -5 5 -10 10 -10 6 0 10 -32 10 -75 l0 -75 46 0 c60 0
81 13 93 56 20 71 -20 114 -106 114 -29 0 -53 -4 -53 -10z m118 -26 c15 -10
22 -25 22 -46 0 -42 -25 -68 -67 -68 l-33 0 0 58 c0 32 3 62 7 65 11 12 48 7
71 -9z"/>
</g>
</svg>
